<?xml version='1.0' encoding='UTF-8'?>
<!DOCTYPE svg PUBLIC "-//W3C//DTD SVG 1.0//EN" "http://www.w3.org/TR/2001/REC-SVG-20010904/DTD/svg10.dtd ">
<svg width="8.5in" height="11.0in" xmlns="http://www.w3.org/2000/svg" >
	<desc>map grid</desc>
	<text y="20" x="20">Thebes</text>
	<text y="20" x="200">Map For quux</text>
	<text y="20" x="500">NOT IN GAME</text>
	<text y="357.395227538" x="275.382685902" font-size="9">213</text>
	<polygon stroke-width="0.01in" stroke="black" points="261.00000000000006, 366.39522753801094  274.5, 389.77791344019079  301.50000000000006, 389.77791344019079  315.00000000000006, 366.39522753801094  301.50000000000006, 343.0125416358311  274.5, 343.0125416358311  " fill="none"/>
	<text y="373.595227538" x="275.382685902" font-size="9">Sabinta</text>
	<text y="380.77791344" x="315.882685902" font-size="9">314</text>
	<polygon stroke-width="0.01in" stroke="black" points="301.5, 389.77791344019079  315.0, 413.16059934237057  342.0, 413.16059934237057  355.5, 389.77791344019079  342.0, 366.39522753801094  315.0, 366.39522753801094  " fill="none"/>
	<text y="396.97791344" x="315.882685902" font-size="9">Bazaar</text>
	<text y="404.160599342" x="275.382685902" font-size="9">215</text>
	<polygon stroke-width="0.01in" stroke="black" points="261.00000000000006, 413.16059934237069  274.5, 436.54328524455047  301.50000000000006, 436.54328524455047  315.00000000000006, 413.16059934237069  301.50000000000006, 389.77791344019079  274.5, 389.77791344019079  " fill="none"/>
	<text y="420.360599342" x="275.382685902" font-size="9">Kanarkk</text>
	<text y="427.543285245" x="234.882685902" font-size="9">216</text>
	<polygon stroke-width="0.01in" stroke="black" points="220.50000000000003, 436.54328524455047  234.0, 459.92597114673026  261.00000000000006, 459.92597114673026  274.5, 436.54328524455047  261.00000000000006, 413.16059934237057  234.0, 413.16059934237057  " fill="none"/>
	<text y="443.743285245" x="234.882685902" font-size="9">Akhra</text>
	<text y="427.543285245" x="315.882685902" font-size="9">316</text>
	<polygon stroke-width="0.01in" stroke="black" points="301.5, 436.54328524455047  315.0, 459.92597114673026  342.0, 459.92597114673026  355.5, 436.54328524455047  342.0, 413.16059934237057  315.0, 413.16059934237057  " fill="none"/>
	<text y="443.743285245" x="315.882685902" font-size="9">Baki</text>
</svg>
